<?xml version="1.0" encoding="utf-8"?>
<!-- Generator: Adobe Illustrator 26.0.2, SVG Export Plug-In . SVG Version: 6.00 Build 0)  -->
<svg version="1.1" id="Layer_1" xmlns="http://www.w3.org/2000/svg" xmlns:xlink="http://www.w3.org/1999/xlink" x="0px" y="0px"
	 viewBox="0 0 2250 1500" style="enable-background:new 0 0 2250 1500;" xml:space="preserve">
<style type="text/css">
	.st0{display:none;fill:#FFFFFF;}
	
		.st1{clip-path:url(#SVGID_00000092431206136795589920000003343087646162548898_);fill:url(#SVGID_00000114761509224064138100000006906951415995215761_);}
	
		.st2{clip-path:url(#SVGID_00000114754642920610451630000012053749483455469457_);fill:url(#SVGID_00000105426308956278074960000002503427865636750772_);}
	
		.st3{clip-path:url(#SVGID_00000165946649632227533820000008461082331570330786_);fill:url(#SVGID_00000009566228270939939220000016422235253900268689_);}
	.st4{opacity:0.13;fill-rule:evenodd;clip-rule:evenodd;fill:#001422;}
	
		.st5{clip-path:url(#SVGID_00000125585109859395384720000002778622582079218835_);fill:url(#SVGID_00000055689346234656847930000003136536479319593125_);}
	
		.st6{clip-path:url(#SVGID_00000057867155242431395840000010751637429249558177_);fill:url(#SVGID_00000020382433537484842710000011443651937235971968_);}
	.st7{opacity:0.19;fill-rule:evenodd;clip-rule:evenodd;fill:#070317;}
	
		.st8{clip-path:url(#SVGID_00000003789058070843999920000011760938501768662150_);fill:url(#SVGID_00000176042974225222989080000003672071503114503601_);}
	
		.st9{clip-path:url(#SVGID_00000036230898524883459240000006863480702139249056_);fill:url(#SVGID_00000091700316638610555920000007007491771685435303_);}
	
		.st10{clip-path:url(#SVGID_00000053513491609896953750000005323889300151530660_);fill:url(#SVGID_00000157289716734168876550000002000151302892241311_);}
	.st11{opacity:0.28;fill-rule:evenodd;clip-rule:evenodd;fill:#FA9CFF;}
	
		.st12{clip-path:url(#SVGID_00000159429521244721720740000012368679385731421322_);fill:url(#SVGID_00000113337742232661386510000014093832871974748078_);}
	
		.st13{clip-path:url(#SVGID_00000172414150074739987520000004519584699447183246_);fill:url(#SVGID_00000173882357164989627180000006610319378555021466_);}
	
		.st14{clip-path:url(#SVGID_00000088134875919312974160000000909122801035567510_);fill:url(#SVGID_00000152985697045368451400000001561469926231320735_);}
	.st15{opacity:0.19;fill-rule:evenodd;clip-rule:evenodd;}
	
		.st16{clip-path:url(#SVGID_00000162350082430879585730000007265056383240753796_);fill:url(#SVGID_00000050642105087392512430000010975471588333647239_);}
	
		.st17{clip-path:url(#SVGID_00000134238098137250443890000000755461295673054649_);fill:url(#SVGID_00000111190683412792486220000007270574659337628809_);}
	
		.st18{clip-path:url(#SVGID_00000065790790892644562600000003945752508891161009_);fill:url(#SVGID_00000090276516244314526990000004192757102732406154_);}
	
		.st19{clip-path:url(#SVGID_00000096044612425487524240000006578885593953414282_);fill:url(#SVGID_00000052085811400955800200000005957239629833556870_);}
	.st20{opacity:0.21;fill-rule:evenodd;clip-rule:evenodd;fill:#FEFEFE;}
	.st21{opacity:0.21;fill-rule:evenodd;clip-rule:evenodd;fill:#FFFFFF;}
	.st22{opacity:0.36;fill-rule:evenodd;clip-rule:evenodd;fill:#FFFFFF;}
	.st23{display:none;fill:#29ABE2;stroke:#000000;stroke-miterlimit:10;}
</style>
<rect class="st0" width="2250" height="1500"/>
<g>
	<g>
		<defs>
			<path id="SVGID_1_" d="M1301.88,658.51c0,0,89.12-50.29,152.25-26.73c0,0,50.88-7.54,67.84-32.98c0,0-32.03-69.72-107.41-69.72
				c0,0-21.39,5.1-59.37,29.21l-34.39,21.78L1301.88,658.51z"/>
		</defs>
		<clipPath id="SVGID_00000062194449887433590170000007752592498160576431_">
			<use xlink:href="#SVGID_1_"  style="overflow:visible;"/>
		</clipPath>
		
			<linearGradient id="SVGID_00000036235487646013556280000010984232656333182898_" gradientUnits="userSpaceOnUse" x1="1349.5238" y1="604.14" x2="1526.2876" y2="574.8301">
			<stop  offset="0" style="stop-color:#901755"/>
			<stop  offset="1" style="stop-color:#FB7228"/>
		</linearGradient>
		
			<rect x="1301.88" y="529.08" style="clip-path:url(#SVGID_00000062194449887433590170000007752592498160576431_);fill:url(#SVGID_00000036235487646013556280000010984232656333182898_);" width="220.09" height="129.43"/>
	</g>
	<g>
		<defs>
			<path id="SVGID_00000048464184300022002920000003373138140192807563_" d="M1521.97,598.8c0,0-32.03-69.72-107.41-69.72
				c0,0-17.24,4.12-48.25,22.4C1393.86,573.59,1443.31,599.9,1521.97,598.8"/>
		</defs>
		<clipPath id="SVGID_00000171696670596338037130000004716470470041334423_">
			<use xlink:href="#SVGID_00000048464184300022002920000003373138140192807563_"  style="overflow:visible;"/>
		</clipPath>
		
			<linearGradient id="SVGID_00000051349457327600083740000016865871706582545574_" gradientUnits="userSpaceOnUse" x1="1322.0697" y1="595.8629" x2="1522.3531" y2="544.3896">
			<stop  offset="0" style="stop-color:#901755"/>
			<stop  offset="1" style="stop-color:#FB7228"/>
		</linearGradient>
		
			<rect x="1366.31" y="529.08" style="clip-path:url(#SVGID_00000171696670596338037130000004716470470041334423_);fill:url(#SVGID_00000051349457327600083740000016865871706582545574_);" width="155.66" height="70.83"/>
	</g>
	<g>
		<defs>
			<path id="SVGID_00000158747506483645695530000015183110806708691335_" d="M1301.88,658.51c0,0,89.12-50.29,152.25-26.73
				c0,0,12.78-1.89,27.66-6.98c0,0-107.91-52.84-170.94,13.82c-2.12,2.24-4.02,4.42-5.75,6.55L1301.88,658.51z"/>
		</defs>
		<clipPath id="SVGID_00000016062002627944690980000000694481071647907745_">
			<use xlink:href="#SVGID_00000158747506483645695530000015183110806708691335_"  style="overflow:visible;"/>
		</clipPath>
		
			<linearGradient id="SVGID_00000088823302640817397220000005488486811131809954_" gradientUnits="userSpaceOnUse" x1="1372.8527" y1="622.4419" x2="1497.8719" y2="574.9491">
			<stop  offset="0" style="stop-color:#901755"/>
			<stop  offset="1" style="stop-color:#FB7228"/>
		</linearGradient>
		
			<rect x="1301.88" y="571.95" style="clip-path:url(#SVGID_00000016062002627944690980000000694481071647907745_);fill:url(#SVGID_00000088823302640817397220000005488486811131809954_);" width="179.91" height="86.56"/>
	</g>
	<path class="st4" d="M1301.88,658.51c0,0,30.43-17.16,68.31-26.74c-4.8-40.58-15-73.49-15-73.49l-34.39,21.78L1301.88,658.51z"/>
	<g>
		<defs>
			<path id="SVGID_00000009588310868664533510000009332324257004410243_" d="M1355.19,558.29
				c-201.34,124.85-195.03,168.95-505.13,147.46C1056.75,854.88,1384.37,815.32,1355.19,558.29"/>
		</defs>
		<clipPath id="SVGID_00000140692490040269689770000013575436910273388170_">
			<use xlink:href="#SVGID_00000009588310868664533510000009332324257004410243_"  style="overflow:visible;"/>
		</clipPath>
		
			<linearGradient id="SVGID_00000080180639945221846870000010181615637832901770_" gradientUnits="userSpaceOnUse" x1="880.5232" y1="787.5507" x2="1359.9745" y2="623.5418">
			<stop  offset="0" style="stop-color:#1B1BA3"/>
			<stop  offset="1" style="stop-color:#65C7F7"/>
		</linearGradient>
		
			<rect x="850.07" y="558.29" style="clip-path:url(#SVGID_00000140692490040269689770000013575436910273388170_);fill:url(#SVGID_00000080180639945221846870000010181615637832901770_);" width="534.31" height="296.59"/>
	</g>
	<g>
		<defs>
			<path id="SVGID_00000160172731155734929420000004294240060348574641_" d="M850.07,705.75
				c200.47,144.66,514.72,111.77,506.79-124.9C1356.4,583.46,1301.97,893.09,850.07,705.75"/>
		</defs>
		<clipPath id="SVGID_00000044865820417337658940000005174572538936343976_">
			<use xlink:href="#SVGID_00000160172731155734929420000004294240060348574641_"  style="overflow:visible;"/>
		</clipPath>
		
			<linearGradient id="SVGID_00000091718496644805976990000008478135782605024163_" gradientUnits="userSpaceOnUse" x1="994.3926" y1="775.1162" x2="1364.8365" y2="650.0967">
			<stop  offset="0" style="stop-color:#1B1BA3"/>
			<stop  offset="1" style="stop-color:#65C7F7"/>
		</linearGradient>
		
			<rect x="850.07" y="580.85" style="clip-path:url(#SVGID_00000044865820417337658940000005174572538936343976_);fill:url(#SVGID_00000091718496644805976990000008478135782605024163_);" width="514.72" height="312.25"/>
	</g>
	<path class="st7" d="M1319.67,580.8c-15.81,10.23-30.22,19.82-43.62,28.79c-8.35,82.98-69.49,169.16-70.93,171.18
		c37.72-10.44,70.97-27.95,96.67-52.71c24.32-67,21.65-126.6,21.65-126.6L1319.67,580.8z"/>
	<path class="st7" d="M1027.15,709.59c-41.46,2.47-92.21,1.56-157.85-2.57c-2.34,2.34-4.67,4.75-6.97,7.23
		c27.41,18.39,56.69,33.59,86.81,45.55C982.56,745.57,1008,727.54,1027.15,709.59"/>
	<g>
		<defs>
			<path id="SVGID_00000070104669940220692970000000293906133651148951_" d="M1107.41,852.25
				c209.17-73.49,209.37-229.1,209.37-229.1C1200.71,665.33,1134.42,714.38,1107.41,852.25"/>
		</defs>
		<clipPath id="SVGID_00000110445642453547466290000004391406130459817391_">
			<use xlink:href="#SVGID_00000070104669940220692970000000293906133651148951_"  style="overflow:visible;"/>
		</clipPath>
		
			<linearGradient id="SVGID_00000099633355475377714600000011713276310625948584_" gradientUnits="userSpaceOnUse" x1="1134.4293" y1="848.0097" x2="1222.4492" y2="722.9905">
			<stop  offset="0" style="stop-color:#901755"/>
			<stop  offset="1" style="stop-color:#FB7228"/>
		</linearGradient>
		
			<rect x="1107.41" y="623.15" style="clip-path:url(#SVGID_00000110445642453547466290000004391406130459817391_);fill:url(#SVGID_00000099633355475377714600000011713276310625948584_);" width="209.37" height="229.1"/>
	</g>
	<g>
		<defs>
			<path id="SVGID_00000114063843845264905150000017674231281733551276_" d="M1214.92,671.99c-51.7,35.01-85.62,83.46-104.25,164.89
				C1161.76,790.08,1194.48,726.83,1214.92,671.99"/>
		</defs>
		<clipPath id="SVGID_00000057846633801871170690000016959835787203570571_">
			<use xlink:href="#SVGID_00000114063843845264905150000017674231281733551276_"  style="overflow:visible;"/>
		</clipPath>
		
			<linearGradient id="SVGID_00000132778211826031962170000005609284773691572397_" gradientUnits="userSpaceOnUse" x1="1095.058" y1="825.4788" x2="1189.8627" y2="726.0604">
			<stop  offset="0" style="stop-color:#901755"/>
			<stop  offset="1" style="stop-color:#FB7228"/>
		</linearGradient>
		
			<rect x="1110.68" y="671.99" style="clip-path:url(#SVGID_00000057846633801871170690000016959835787203570571_);fill:url(#SVGID_00000132778211826031962170000005609284773691572397_);" width="104.25" height="164.89"/>
	</g>
	<g>
		<defs>
			<path id="SVGID_00000161621092370501621820000003268987930601243071_" d="M1148.2,835.72
				c168.37-77.95,168.58-212.58,168.58-212.58c-2.03,0.74-4.04,1.48-6.04,2.22C1231.88,692.71,1177.85,779.53,1148.2,835.72"/>
		</defs>
		<clipPath id="SVGID_00000011019788831379678670000009206092985329370285_">
			<use xlink:href="#SVGID_00000161621092370501621820000003268987930601243071_"  style="overflow:visible;"/>
		</clipPath>
		
			<linearGradient id="SVGID_00000029746323152884597280000010837954852314617245_" gradientUnits="userSpaceOnUse" x1="1160.9509" y1="812.1977" x2="1250.328" y2="708.799">
			<stop  offset="0" style="stop-color:#901755"/>
			<stop  offset="1" style="stop-color:#FB7228"/>
		</linearGradient>
		
			<rect x="1148.2" y="623.15" style="clip-path:url(#SVGID_00000011019788831379678670000009206092985329370285_);fill:url(#SVGID_00000029746323152884597280000010837954852314617245_);" width="168.58" height="212.58"/>
	</g>
	<path class="st11" d="M1107.41,852.25c209.17-73.49,209.37-229.1,209.37-229.1c-5.8,2.11-11.46,4.23-17.01,6.38
		c-0.82,2.48-1.6,4.98-2.28,7.54c-35.51,133.23-181.87,181.89-182.37,182.06C1112.27,829.57,1109.7,840.58,1107.41,852.25"/>
	<g>
		<defs>
			<path id="SVGID_00000067949232824917339950000009495440095038388371_" d="M810.78,787.63
				c221.06-16.85,261.53-167.11,261.53-167.11C949.28,631.22,872.55,661.45,810.78,787.63"/>
		</defs>
		<clipPath id="SVGID_00000005224969479456938340000016276994144420007315_">
			<use xlink:href="#SVGID_00000067949232824917339950000009495440095038388371_"  style="overflow:visible;"/>
		</clipPath>
		
			<linearGradient id="SVGID_00000010291349587957688710000007458238651815049899_" gradientUnits="userSpaceOnUse" x1="837.9418" y1="790.5193" x2="955.3622" y2="692.5484">
			<stop  offset="0" style="stop-color:#901755"/>
			<stop  offset="1" style="stop-color:#FB7228"/>
		</linearGradient>
		
			<rect x="810.78" y="620.52" style="clip-path:url(#SVGID_00000005224969479456938340000016276994144420007315_);fill:url(#SVGID_00000010291349587957688710000007458238651815049899_);" width="261.53" height="167.11"/>
	</g>
	<g>
		<defs>
			<path id="SVGID_00000112595452092608404720000015030656257400279188_" d="M961.29,641.34c-59.01,20.44-104.3,58.45-143.37,132.29
				C879.37,741.65,927.34,689.02,961.29,641.34"/>
		</defs>
		<clipPath id="SVGID_00000115479824665202721030000002232508517281085094_">
			<use xlink:href="#SVGID_00000112595452092608404720000015030656257400279188_"  style="overflow:visible;"/>
		</clipPath>
		
			<linearGradient id="SVGID_00000165952480959341904000000009996533330005606048_" gradientUnits="userSpaceOnUse" x1="805.7164" y1="758.5818" x2="923.0464" y2="687.1163">
			<stop  offset="0" style="stop-color:#901755"/>
			<stop  offset="1" style="stop-color:#FB7228"/>
		</linearGradient>
		
			<rect x="817.92" y="641.34" style="clip-path:url(#SVGID_00000115479824665202721030000002232508517281085094_);fill:url(#SVGID_00000165952480959341904000000009996533330005606048_);" width="143.37" height="132.29"/>
	</g>
	<g>
		<defs>
			<path id="SVGID_00000081646997595834301710000003721109580982498201_" d="M854.46,782.23c182.81-31.72,217.85-161.7,217.85-161.7
				c-2.15,0.19-4.29,0.38-6.41,0.58C972.31,665.74,897.64,735.62,854.46,782.23"/>
		</defs>
		<clipPath id="SVGID_00000028292894834415662740000005224902862683393426_">
			<use xlink:href="#SVGID_00000081646997595834301710000003721109580982498201_"  style="overflow:visible;"/>
		</clipPath>
		
			<linearGradient id="SVGID_00000113344953564089630820000000148362184274666923_" gradientUnits="userSpaceOnUse" x1="872.8543" y1="762.7902" x2="985.9325" y2="686.0779">
			<stop  offset="0" style="stop-color:#901755"/>
			<stop  offset="1" style="stop-color:#FB7228"/>
		</linearGradient>
		
			<rect x="854.46" y="620.52" style="clip-path:url(#SVGID_00000028292894834415662740000005224902862683393426_);fill:url(#SVGID_00000113344953564089630820000000148362184274666923_);" width="217.85" height="161.7"/>
	</g>
	<path class="st11" d="M810.78,787.63c221.06-16.85,261.53-167.11,261.53-167.11c-6.14,0.54-12.17,1.12-18.08,1.76
		c-1.43,2.18-2.83,4.4-4.15,6.69c-68.79,119.5-222.75,128.62-223.27,128.65C821.34,766.98,816.01,776.95,810.78,787.63"/>
	<path class="st15" d="M1355.19,558.29c-201.34,124.85-195.03,168.95-505.13,147.46c2.15,1.55,4.33,3.05,6.51,4.56
		c106.29,26.98,417.75,87.24,500.04-106.97C1357.42,589.14,1356.99,574.13,1355.19,558.29"/>
	<g>
		<defs>
			<path id="SVGID_00000128457984837458498930000002374561614554266815_" d="M806.84,693.96c0,0,481.46,152.63,548.36-135.68
				C1154.69,343.82,970.68,561.73,806.84,693.96"/>
		</defs>
		<clipPath id="SVGID_00000127749708366525778540000002605458258644389311_">
			<use xlink:href="#SVGID_00000128457984837458498930000002374561614554266815_"  style="overflow:visible;"/>
		</clipPath>
		
			<linearGradient id="SVGID_00000129187072900032715570000010273853844721571505_" gradientUnits="userSpaceOnUse" x1="1343.9237" y1="528.9025" x2="799.7916" y2="666.1344">
			<stop  offset="0" style="stop-color:#7BFBD4"/>
			<stop  offset="1" style="stop-color:#FEFEFE"/>
		</linearGradient>
		
			<rect x="806.84" y="343.82" style="clip-path:url(#SVGID_00000127749708366525778540000002605458258644389311_);fill:url(#SVGID_00000129187072900032715570000010273853844721571505_);" width="548.36" height="502.78"/>
	</g>
	<g>
		<defs>
			<path id="SVGID_00000168076068866253575470000009296028173941708695_" d="M806.84,693.96c0,0,471.84,129.11,529.11-137.82
				C1135.44,341.68,970.68,561.73,806.84,693.96"/>
		</defs>
		<clipPath id="SVGID_00000124848445757763589160000000395229211804563343_">
			<use xlink:href="#SVGID_00000168076068866253575470000009296028173941708695_"  style="overflow:visible;"/>
		</clipPath>
		
			<linearGradient id="SVGID_00000030462610460026143600000017794259910761802630_" gradientUnits="userSpaceOnUse" x1="797.6499" y1="647.3687" x2="1259.8231" y2="537.6377">
			<stop  offset="0" style="stop-color:#2E93CC"/>
			<stop  offset="1" style="stop-color:#5FFBDE"/>
		</linearGradient>
		
			<rect x="806.84" y="341.68" style="clip-path:url(#SVGID_00000124848445757763589160000000395229211804563343_);fill:url(#SVGID_00000030462610460026143600000017794259910761802630_);" width="529.11" height="481.39"/>
	</g>
	<g>
		<defs>
			<path id="SVGID_00000155865291993580006040000004968455828011929986_" d="M806.84,693.96c0,0,413.48,113.12,513.27-91.41
				c-120.41-76.92-250.61-72.01-366.65-35.54C903.9,608,855.33,654.83,806.84,693.96"/>
		</defs>
		<clipPath id="SVGID_00000132054328511583469400000006937555440127737748_">
			<use xlink:href="#SVGID_00000155865291993580006040000004968455828011929986_"  style="overflow:visible;"/>
		</clipPath>
		
			<linearGradient id="SVGID_00000154405941129490939580000015906226979866600107_" gradientUnits="userSpaceOnUse" x1="931.2127" y1="719.798" x2="1254.978" y2="588.989">
			<stop  offset="0" style="stop-color:#2E93CC"/>
			<stop  offset="1" style="stop-color:#5FFBDE"/>
		</linearGradient>
		
			<rect x="806.84" y="525.64" style="clip-path:url(#SVGID_00000132054328511583469400000006937555440127737748_);fill:url(#SVGID_00000154405941129490939580000015906226979866600107_);" width="513.27" height="281.45"/>
	</g>
	<g>
		<defs>
			<path id="SVGID_00000114055784069592654660000008134029107003970747_" d="M806.84,693.96c0,0,471.84,129.11,529.11-137.82
				c-10.51-11.24-20.91-21.21-31.22-30.14C1206.74,714.01,806.84,693.96,806.84,693.96"/>
		</defs>
		<clipPath id="SVGID_00000152235437300065024650000007824660810078465459_">
			<use xlink:href="#SVGID_00000114055784069592654660000008134029107003970747_"  style="overflow:visible;"/>
		</clipPath>
		
			<linearGradient id="SVGID_00000098919201314259769370000013147296500971884673_" gradientUnits="userSpaceOnUse" x1="964.442" y1="740.9568" x2="1318.4221" y2="521.1324">
			<stop  offset="0" style="stop-color:#2E93CC"/>
			<stop  offset="1" style="stop-color:#5FFBDE"/>
		</linearGradient>
		
			<rect x="806.84" y="526.01" style="clip-path:url(#SVGID_00000152235437300065024650000007824660810078465459_);fill:url(#SVGID_00000098919201314259769370000013147296500971884673_);" width="529.11" height="297.06"/>
	</g>
	<path class="st20" d="M806.84,693.96c0,0,24.13,6.59,62.06,13.71c88.66-84.24,227.29-191,382.44-218.72
		C1087.95,403.36,947.05,580.8,806.84,693.96"/>
	<path class="st21" d="M1389.88,538.83c25.26,17.41,74.57,46.43,126.22,49.56c-12.32-19.44-44.53-59.31-101.54-59.31
		C1414.56,529.08,1405.93,531.14,1389.88,538.83"/>
	<path class="st22" d="M1036.42,530.4c-22.07,52.6,16.2,29.13,81.27,15.5c65.07-13.62,73.65-23.68,115.96,0.19
		c42.31,23.87,110.21,41.51,81.34,3.02c-28.87-38.5-63.14-57.14-86.62-66.3C1179.42,463.72,1058.49,477.8,1036.42,530.4"/>
	<path class="st22" d="M1107.03,505.94c-13.22,29.2,8.64,16.61,45.4,9.99c36.76-6.63,41.74-12.14,65.12,1.93
		c23.39,14.07,61.24,25.05,45.63,2.98c-15.61-22.08-34.56-33.09-47.6-38.6C1188.4,470.75,1120.25,476.75,1107.03,505.94"/>
</g>
<path class="st23" d="M2181.32,1361.86v-29.74h-82.5v-31.92h71.65v-29.75h-71.65v-30.83h81.42v-29.74h-114.42v151.98H2181.32z
	 M2040.63,1361.86v-30.18h-75.77v-121.8h-33.44v151.98H2040.63z M1905.81,1240.71v-30.83h-125.92v30.83h46.24v121.15h33.43v-121.15
	H1905.81z M1726.69,1262.21c0,6.51-2.21,11.72-6.62,15.63c-4.41,3.91-10.75,5.86-19,5.86h-33.87v-43.64h33.22
	c8.25,0,14.69,1.81,19.32,5.43c4.63,3.62,6.95,9.05,6.95,16.29V1262.21z M1765.12,1361.86l-37.13-54.28
	c9.7-3.62,17.55-9.3,23.56-17.04c6.01-7.74,9.01-17.77,9.01-30.07v-0.44c0-15.77-5.03-28.08-15.09-36.91
	c-10.06-8.83-24.14-13.24-42.23-13.24h-69.47v151.98h33.44v-48.63h26.27l32.57,48.63H1765.12z M1599.68,1295.64v-85.76h-33.44v87.06
	c0,12.16-2.89,21.28-8.69,27.36c-5.79,6.08-13.82,9.12-24.1,9.12c-10.27,0-18.31-3.15-24.1-9.44c-5.79-6.3-8.69-15.67-8.69-28.12
	v-85.98h-33.43v86.84c0,22.44,5.86,39.3,17.59,50.59c11.72,11.29,27.79,16.93,48.2,16.93c10.13,0,19.32-1.41,27.57-4.23
	c8.25-2.82,15.27-7.09,21.06-12.81s10.24-12.84,13.35-21.39C1598.12,1317.28,1599.68,1307.22,1599.68,1295.64z M2044.44,1426.15
	v-8.12h-22.51v-8.71h19.55v-8.12h-19.55v-8.41h22.21v-8.12h-31.22v41.47H2044.44z M1949.64,1426.15v-41.47h-9v25.53l-19.43-25.53
	h-8.41v41.47h9.01v-26.36l20.08,26.36H1949.64z M1849.1,1426.15v-41.47h-9.12v41.47H1849.1z M1779.35,1426.15v-8.23h-20.67v-33.23
	h-9.12v41.47H1779.35z M1687.45,1420.28v-18.01h-18.01v7.88h9.18v5.96c-2.33,1.67-5.2,2.51-8.59,2.51c-1.86,0-3.54-0.33-5.06-0.98
	c-1.52-0.65-2.84-1.58-3.97-2.76c-1.13-1.18-2-2.58-2.61-4.19c-0.61-1.6-0.92-3.36-0.92-5.25v-0.12c0-1.78,0.3-3.46,0.92-5.02
	c0.61-1.57,1.46-2.93,2.55-4.1c1.09-1.16,2.35-2.1,3.79-2.79c1.44-0.69,2.99-1.04,4.65-1.04c1.18,0,2.27,0.1,3.26,0.3
	c0.99,0.2,1.91,0.47,2.76,0.83c0.85,0.36,1.67,0.79,2.46,1.3c0.79,0.51,1.58,1.11,2.37,1.78l5.75-6.93
	c-1.07-0.91-2.17-1.72-3.32-2.43c-1.15-0.71-2.37-1.3-3.67-1.78c-1.3-0.47-2.72-0.84-4.23-1.1c-1.52-0.26-3.21-0.38-5.07-0.38
	c-3.16,0-6.06,0.56-8.71,1.69c-2.65,1.13-4.94,2.67-6.87,4.62c-1.94,1.96-3.45,4.23-4.53,6.81c-1.09,2.59-1.63,5.36-1.63,8.32v0.12
	c0,3.08,0.53,5.92,1.6,8.53c1.07,2.61,2.56,4.86,4.47,6.75c1.92,1.89,4.21,3.38,6.87,4.44c2.66,1.07,5.62,1.6,8.86,1.6
	c3.79,0,7.16-0.64,10.1-1.93C1682.78,1423.65,1685.32,1422.1,1687.45,1420.28z M1573.46,1408.79h-11.02l5.51-13.45L1573.46,1408.79z
	 M1590.04,1426.15l-17.77-41.76h-8.41l-17.77,41.76h9.3l3.79-9.3h17.54l3.79,9.3H1590.04z M1489.32,1393.1v-8.41h-34.36v8.41h12.62
	v33.05h9.12v-33.05H1489.32z M1444.01,1240.71v-30.83h-125.92v30.83h46.24v121.15h33.43v-121.15H1444.01z"/>
</svg>
