<?xml version="1.0" encoding="utf-8"?>
<!-- Generator: Adobe Illustrator 26.0.2, SVG Export Plug-In . SVG Version: 6.00 Build 0)  -->
<svg version="1.1" id="Layer_1" xmlns="http://www.w3.org/2000/svg" xmlns:xlink="http://www.w3.org/1999/xlink" x="0px" y="0px"
	 viewBox="0 0 2250 1500" style="enable-background:new 0 0 2250 1500;" xml:space="preserve">
<style type="text/css">
	.st0{fill:#29ABE2;stroke:#000000;stroke-miterlimit:10;}
	.st1{font-family:'SegoeUI-Bold';}
	.st2{font-size:175.5414px;}
	.st3{font-size:100.8842px;}
	.st4{letter-spacing:11.33;}
	.st5{display:none;fill:#FFFFFF;}
	
		.st6{clip-path:url(#SVGID_00000095336190701591143490000012436998103301787804_);fill:url(#SVGID_00000027579500010932179360000010914619608986211720_);}
	
		.st7{clip-path:url(#SVGID_00000133490614013817884260000005617633577000632767_);fill:url(#SVGID_00000158024056959994251600000008681318799107987892_);}
	
		.st8{clip-path:url(#SVGID_00000139289519011320261120000009782504182347408804_);fill:url(#SVGID_00000119825356573633266720000002781530532964216975_);}
	.st9{opacity:0.13;fill-rule:evenodd;clip-rule:evenodd;fill:#001422;}
	
		.st10{clip-path:url(#SVGID_00000045590905030215089250000011769566431264439727_);fill:url(#SVGID_00000137832470867682593670000011318306636463157647_);}
	
		.st11{clip-path:url(#SVGID_00000176038557837940802570000013574092988698381473_);fill:url(#SVGID_00000160178995405478688170000003166039829920536973_);}
	.st12{opacity:0.19;fill-rule:evenodd;clip-rule:evenodd;fill:#070317;}
	
		.st13{clip-path:url(#SVGID_00000057150614050584021250000008471712641915962773_);fill:url(#SVGID_00000008136834929331604330000011461378404319543223_);}
	
		.st14{clip-path:url(#SVGID_00000093864366811085860870000000089531482562891432_);fill:url(#SVGID_00000027566935916351004320000015959218896367844259_);}
	
		.st15{clip-path:url(#SVGID_00000093137006306824433030000017726395762703187091_);fill:url(#SVGID_00000080911635176460170390000003052631453661318016_);}
	.st16{opacity:0.28;fill-rule:evenodd;clip-rule:evenodd;fill:#FA9CFF;}
	
		.st17{clip-path:url(#SVGID_00000029762956425439751600000011778735167938983588_);fill:url(#SVGID_00000091006226071104390340000006856379969875513747_);}
	
		.st18{clip-path:url(#SVGID_00000079485667138752790860000017153332246343522490_);fill:url(#SVGID_00000042001924956555982300000011477651913375143590_);}
	
		.st19{clip-path:url(#SVGID_00000105411739487223899250000017921079139369484469_);fill:url(#SVGID_00000078045949323353463480000008224320877145865619_);}
	.st20{opacity:0.19;fill-rule:evenodd;clip-rule:evenodd;}
	
		.st21{clip-path:url(#SVGID_00000144306085347583228990000008156700657691523992_);fill:url(#SVGID_00000148656671381856572720000016789492161147789985_);}
	
		.st22{clip-path:url(#SVGID_00000042010849479530174720000004370689363724739230_);fill:url(#SVGID_00000082339280721012061480000005204777030959981210_);}
	
		.st23{clip-path:url(#SVGID_00000041297629005783800310000011748836026119985045_);fill:url(#SVGID_00000171690762088266757850000002038299120064613306_);}
	
		.st24{clip-path:url(#SVGID_00000123412140431783918520000012121248019717304247_);fill:url(#SVGID_00000096024356442633572490000008164100035030459581_);}
	.st25{opacity:0.21;fill-rule:evenodd;clip-rule:evenodd;fill:#FEFEFE;}
	.st26{opacity:0.21;fill-rule:evenodd;clip-rule:evenodd;fill:#FFFFFF;}
	.st27{opacity:0.36;fill-rule:evenodd;clip-rule:evenodd;fill:#FFFFFF;}
	.st28{display:none;fill:#29ABE2;stroke:#000000;stroke-miterlimit:10;}
</style>
<text transform="matrix(0.8828 0 0 1 574.3756 975.6118)" class="st0 st1 st2">DANNY URKOV</text>
<text transform="matrix(0.8828 0 0 1 739.1141 1082.1123)" class="st0 st1 st3 st4">WEB DEVELOPER</text>
<rect class="st5" width="2250" height="1500"/>
<g>
	<g>
		<defs>
			<path id="SVGID_1_" d="M1318.09,637.02c0,0,89.12-50.29,152.25-26.73c0,0,50.88-7.54,67.84-32.98c0,0-32.03-69.72-107.41-69.72
				c0,0-21.39,5.1-59.37,29.21l-34.39,21.78L1318.09,637.02z"/>
		</defs>
		<clipPath id="SVGID_00000175296602194873734740000012473019969539705216_">
			<use xlink:href="#SVGID_1_"  style="overflow:visible;"/>
		</clipPath>
		
			<linearGradient id="SVGID_00000157996787412328475610000003969751162618891653_" gradientUnits="userSpaceOnUse" x1="1365.7266" y1="582.6492" x2="1542.4902" y2="553.3394">
			<stop  offset="0" style="stop-color:#901755"/>
			<stop  offset="1" style="stop-color:#FB7228"/>
		</linearGradient>
		
			<rect x="1318.09" y="507.59" style="clip-path:url(#SVGID_00000175296602194873734740000012473019969539705216_);fill:url(#SVGID_00000157996787412328475610000003969751162618891653_);" width="220.09" height="129.43"/>
	</g>
	<g>
		<defs>
			<path id="SVGID_00000156558082043264229550000008029940602961640589_" d="M1538.18,577.31c0,0-32.03-69.72-107.41-69.72
				c0,0-17.24,4.12-48.25,22.4C1410.06,552.1,1459.51,578.41,1538.18,577.31"/>
		</defs>
		<clipPath id="SVGID_00000142883088404092577490000002445097836589585539_">
			<use xlink:href="#SVGID_00000156558082043264229550000008029940602961640589_"  style="overflow:visible;"/>
		</clipPath>
		
			<linearGradient id="SVGID_00000072991045870660849190000012018570503466039983_" gradientUnits="userSpaceOnUse" x1="1338.2725" y1="574.3722" x2="1538.5559" y2="522.8989">
			<stop  offset="0" style="stop-color:#901755"/>
			<stop  offset="1" style="stop-color:#FB7228"/>
		</linearGradient>
		
			<rect x="1382.51" y="507.59" style="clip-path:url(#SVGID_00000142883088404092577490000002445097836589585539_);fill:url(#SVGID_00000072991045870660849190000012018570503466039983_);" width="155.66" height="70.83"/>
	</g>
	<g>
		<defs>
			<path id="SVGID_00000051367383164485325260000003645985825494213305_" d="M1318.09,637.02c0,0,89.12-50.29,152.25-26.73
				c0,0,12.78-1.89,27.66-6.98c0,0-107.91-52.84-170.94,13.82c-2.12,2.24-4.02,4.42-5.75,6.55L1318.09,637.02z"/>
		</defs>
		<clipPath id="SVGID_00000006690362713199946300000008408231934110757505_">
			<use xlink:href="#SVGID_00000051367383164485325260000003645985825494213305_"  style="overflow:visible;"/>
		</clipPath>
		
			<linearGradient id="SVGID_00000122695459582994961760000004608254018456027050_" gradientUnits="userSpaceOnUse" x1="1389.0554" y1="600.9512" x2="1514.0746" y2="553.4584">
			<stop  offset="0" style="stop-color:#901755"/>
			<stop  offset="1" style="stop-color:#FB7228"/>
		</linearGradient>
		
			<rect x="1318.09" y="550.46" style="clip-path:url(#SVGID_00000006690362713199946300000008408231934110757505_);fill:url(#SVGID_00000122695459582994961760000004608254018456027050_);" width="179.91" height="86.56"/>
	</g>
	<path class="st9" d="M1318.09,637.02c0,0,30.43-17.16,68.31-26.74c-4.8-40.58-15-73.49-15-73.49l-34.39,21.78L1318.09,637.02z"/>
	<g>
		<defs>
			<path id="SVGID_00000017513917598058452920000008505046877085312411_" d="M1371.4,536.79
				c-201.34,124.85-195.03,168.95-505.13,147.46C1072.95,833.39,1400.58,793.83,1371.4,536.79"/>
		</defs>
		<clipPath id="SVGID_00000078728779995731077590000014945475910775363226_">
			<use xlink:href="#SVGID_00000017513917598058452920000008505046877085312411_"  style="overflow:visible;"/>
		</clipPath>
		
			<linearGradient id="SVGID_00000138567405182761169770000007477197560874767536_" gradientUnits="userSpaceOnUse" x1="896.7259" y1="766.0601" x2="1376.1772" y2="602.0511">
			<stop  offset="0" style="stop-color:#1B1BA3"/>
			<stop  offset="1" style="stop-color:#65C7F7"/>
		</linearGradient>
		
			<rect x="866.27" y="536.79" style="clip-path:url(#SVGID_00000078728779995731077590000014945475910775363226_);fill:url(#SVGID_00000138567405182761169770000007477197560874767536_);" width="534.31" height="296.59"/>
	</g>
	<g>
		<defs>
			<path id="SVGID_00000132047555236248093960000011518491164971595398_" d="M866.27,684.26
				c200.47,144.66,514.72,111.77,506.79-124.9C1372.6,561.97,1318.17,871.6,866.27,684.26"/>
		</defs>
		<clipPath id="SVGID_00000059293904008290525960000000427642961141226380_">
			<use xlink:href="#SVGID_00000132047555236248093960000011518491164971595398_"  style="overflow:visible;"/>
		</clipPath>
		
			<linearGradient id="SVGID_00000169543538640266886630000000402077402083198632_" gradientUnits="userSpaceOnUse" x1="1010.5953" y1="753.6255" x2="1381.0393" y2="628.606">
			<stop  offset="0" style="stop-color:#1B1BA3"/>
			<stop  offset="1" style="stop-color:#65C7F7"/>
		</linearGradient>
		
			<rect x="866.27" y="559.36" style="clip-path:url(#SVGID_00000059293904008290525960000000427642961141226380_);fill:url(#SVGID_00000169543538640266886630000000402077402083198632_);" width="514.72" height="312.25"/>
	</g>
	<path class="st12" d="M1335.88,559.31c-15.81,10.23-30.22,19.82-43.62,28.79c-8.35,82.98-69.49,169.16-70.93,171.18
		c37.72-10.44,70.97-27.95,96.67-52.71c24.32-67,21.65-126.6,21.65-126.6L1335.88,559.31z"/>
	<path class="st12" d="M1043.35,688.1c-41.46,2.47-92.21,1.56-157.85-2.57c-2.34,2.34-4.67,4.75-6.97,7.23
		c27.41,18.39,56.69,33.59,86.81,45.55C998.76,724.08,1024.21,706.05,1043.35,688.1"/>
	<g>
		<defs>
			<path id="SVGID_00000173877471700946959130000017108400208348164277_" d="M1123.61,830.76
				c209.17-73.49,209.37-229.1,209.37-229.1C1216.91,643.84,1150.62,692.89,1123.61,830.76"/>
		</defs>
		<clipPath id="SVGID_00000039849418840466049070000013266403465592578484_">
			<use xlink:href="#SVGID_00000173877471700946959130000017108400208348164277_"  style="overflow:visible;"/>
		</clipPath>
		
			<linearGradient id="SVGID_00000135682280361326827430000007836728004310448523_" gradientUnits="userSpaceOnUse" x1="1150.6321" y1="826.519" x2="1238.652" y2="701.4998">
			<stop  offset="0" style="stop-color:#901755"/>
			<stop  offset="1" style="stop-color:#FB7228"/>
		</linearGradient>
		
			<rect x="1123.61" y="601.66" style="clip-path:url(#SVGID_00000039849418840466049070000013266403465592578484_);fill:url(#SVGID_00000135682280361326827430000007836728004310448523_);" width="209.37" height="229.1"/>
	</g>
	<g>
		<defs>
			<path id="SVGID_00000183929460626872071430000006102285087162961798_" d="M1231.13,650.5c-51.7,35.01-85.62,83.46-104.25,164.89
				C1177.96,768.59,1210.68,705.34,1231.13,650.5"/>
		</defs>
		<clipPath id="SVGID_00000048493003971061500280000011454587923730498947_">
			<use xlink:href="#SVGID_00000183929460626872071430000006102285087162961798_"  style="overflow:visible;"/>
		</clipPath>
		
			<linearGradient id="SVGID_00000085948459790990913310000013689257022259572618_" gradientUnits="userSpaceOnUse" x1="1111.2607" y1="803.9882" x2="1206.0654" y2="704.5698">
			<stop  offset="0" style="stop-color:#901755"/>
			<stop  offset="1" style="stop-color:#FB7228"/>
		</linearGradient>
		
			<rect x="1126.88" y="650.5" style="clip-path:url(#SVGID_00000048493003971061500280000011454587923730498947_);fill:url(#SVGID_00000085948459790990913310000013689257022259572618_);" width="104.25" height="164.89"/>
	</g>
	<g>
		<defs>
			<path id="SVGID_00000093174719433804830990000009047336039221560714_" d="M1164.4,814.23
				c168.37-77.95,168.58-212.58,168.58-212.58c-2.03,0.74-4.04,1.48-6.04,2.22C1248.09,671.22,1194.05,758.04,1164.4,814.23"/>
		</defs>
		<clipPath id="SVGID_00000015351619625383940480000000479742172396772789_">
			<use xlink:href="#SVGID_00000093174719433804830990000009047336039221560714_"  style="overflow:visible;"/>
		</clipPath>
		
			<linearGradient id="SVGID_00000044897444683546756750000016615522977543780772_" gradientUnits="userSpaceOnUse" x1="1177.1537" y1="790.707" x2="1266.5308" y2="687.3082">
			<stop  offset="0" style="stop-color:#901755"/>
			<stop  offset="1" style="stop-color:#FB7228"/>
		</linearGradient>
		
			<rect x="1164.4" y="601.66" style="clip-path:url(#SVGID_00000015351619625383940480000000479742172396772789_);fill:url(#SVGID_00000044897444683546756750000016615522977543780772_);" width="168.58" height="212.58"/>
	</g>
	<path class="st16" d="M1123.61,830.76c209.17-73.49,209.37-229.1,209.37-229.1c-5.8,2.11-11.46,4.23-17.01,6.38
		c-0.82,2.48-1.6,4.98-2.28,7.54c-35.51,133.23-181.87,181.89-182.37,182.06C1128.47,808.08,1125.9,819.09,1123.61,830.76"/>
	<g>
		<defs>
			<path id="SVGID_00000038379411698872513330000010811201529119195786_" d="M826.98,766.14
				c221.06-16.85,261.53-167.11,261.53-167.11C965.49,609.73,888.75,639.96,826.98,766.14"/>
		</defs>
		<clipPath id="SVGID_00000059298262469642240250000000495419964004977078_">
			<use xlink:href="#SVGID_00000038379411698872513330000010811201529119195786_"  style="overflow:visible;"/>
		</clipPath>
		
			<linearGradient id="SVGID_00000010998939433312895860000001076407914930082709_" gradientUnits="userSpaceOnUse" x1="854.1446" y1="769.0286" x2="971.5649" y2="671.0577">
			<stop  offset="0" style="stop-color:#901755"/>
			<stop  offset="1" style="stop-color:#FB7228"/>
		</linearGradient>
		
			<rect x="826.98" y="599.03" style="clip-path:url(#SVGID_00000059298262469642240250000000495419964004977078_);fill:url(#SVGID_00000010998939433312895860000001076407914930082709_);" width="261.53" height="167.11"/>
	</g>
	<g>
		<defs>
			<path id="SVGID_00000155136228968267889570000014911294627109466797_" d="M977.49,619.85c-59.01,20.44-104.3,58.45-143.37,132.29
				C895.57,720.16,943.54,667.53,977.49,619.85"/>
		</defs>
		<clipPath id="SVGID_00000103222754465958893170000005282437829640737457_">
			<use xlink:href="#SVGID_00000155136228968267889570000014911294627109466797_"  style="overflow:visible;"/>
		</clipPath>
		
			<linearGradient id="SVGID_00000080168659421927515150000015362430551193212827_" gradientUnits="userSpaceOnUse" x1="821.9192" y1="737.0911" x2="939.2491" y2="665.6256">
			<stop  offset="0" style="stop-color:#901755"/>
			<stop  offset="1" style="stop-color:#FB7228"/>
		</linearGradient>
		
			<rect x="834.12" y="619.85" style="clip-path:url(#SVGID_00000103222754465958893170000005282437829640737457_);fill:url(#SVGID_00000080168659421927515150000015362430551193212827_);" width="143.37" height="132.29"/>
	</g>
	<g>
		<defs>
			<path id="SVGID_00000170253668038863325610000013807184269362860455_" d="M870.66,760.73c182.81-31.72,217.85-161.7,217.85-161.7
				c-2.15,0.19-4.29,0.38-6.41,0.58C988.51,644.25,913.85,714.13,870.66,760.73"/>
		</defs>
		<clipPath id="SVGID_00000080175416255491026290000005385828236199767472_">
			<use xlink:href="#SVGID_00000170253668038863325610000013807184269362860455_"  style="overflow:visible;"/>
		</clipPath>
		
			<linearGradient id="SVGID_00000088823666495521755240000012557094143471517572_" gradientUnits="userSpaceOnUse" x1="889.0571" y1="741.2995" x2="1002.1353" y2="664.5872">
			<stop  offset="0" style="stop-color:#901755"/>
			<stop  offset="1" style="stop-color:#FB7228"/>
		</linearGradient>
		
			<rect x="870.66" y="599.03" style="clip-path:url(#SVGID_00000080175416255491026290000005385828236199767472_);fill:url(#SVGID_00000088823666495521755240000012557094143471517572_);" width="217.85" height="161.7"/>
	</g>
	<path class="st16" d="M826.98,766.14c221.06-16.85,261.53-167.11,261.53-167.11c-6.14,0.54-12.17,1.12-18.08,1.76
		c-1.43,2.18-2.83,4.4-4.15,6.69c-68.79,119.5-222.75,128.62-223.27,128.65C837.55,745.49,832.21,755.46,826.98,766.14"/>
	<path class="st20" d="M1371.4,536.79c-201.34,124.85-195.03,168.95-505.13,147.46c2.15,1.55,4.33,3.05,6.51,4.56
		c106.29,26.98,417.75,87.24,500.04-106.97C1373.63,567.65,1373.2,552.64,1371.4,536.79"/>
	<g>
		<defs>
			<path id="SVGID_00000106826955622050292160000006785304619274871429_" d="M823.04,672.47c0,0,481.46,152.63,548.36-135.68
				C1170.89,322.33,986.88,540.24,823.04,672.47"/>
		</defs>
		<clipPath id="SVGID_00000055689759283430393100000006789979093606395029_">
			<use xlink:href="#SVGID_00000106826955622050292160000006785304619274871429_"  style="overflow:visible;"/>
		</clipPath>
		
			<linearGradient id="SVGID_00000114045509741987982610000013331667008513885575_" gradientUnits="userSpaceOnUse" x1="1360.1263" y1="507.4117" x2="815.9943" y2="644.6437">
			<stop  offset="0" style="stop-color:#7BFBD4"/>
			<stop  offset="1" style="stop-color:#FEFEFE"/>
		</linearGradient>
		
			<rect x="823.04" y="322.33" style="clip-path:url(#SVGID_00000055689759283430393100000006789979093606395029_);fill:url(#SVGID_00000114045509741987982610000013331667008513885575_);" width="548.36" height="502.78"/>
	</g>
	<g>
		<defs>
			<path id="SVGID_00000180352701217460218230000010975631156671849094_" d="M823.04,672.47c0,0,471.84,129.11,529.11-137.82
				C1151.64,320.19,986.88,540.24,823.04,672.47"/>
		</defs>
		<clipPath id="SVGID_00000102508537984229250940000014683396162005170872_">
			<use xlink:href="#SVGID_00000180352701217460218230000010975631156671849094_"  style="overflow:visible;"/>
		</clipPath>
		
			<linearGradient id="SVGID_00000031922724930065310470000006658787933853012155_" gradientUnits="userSpaceOnUse" x1="813.8527" y1="625.8781" x2="1276.0259" y2="516.147">
			<stop  offset="0" style="stop-color:#2E93CC"/>
			<stop  offset="1" style="stop-color:#5FFBDE"/>
		</linearGradient>
		
			<rect x="823.04" y="320.19" style="clip-path:url(#SVGID_00000102508537984229250940000014683396162005170872_);fill:url(#SVGID_00000031922724930065310470000006658787933853012155_);" width="529.11" height="481.39"/>
	</g>
	<g>
		<defs>
			<path id="SVGID_00000040536195418646955460000011505832784379069115_" d="M823.04,672.47c0,0,413.48,113.12,513.27-91.41
				c-120.41-76.92-250.61-72.01-366.65-35.54C920.11,586.51,871.53,633.34,823.04,672.47"/>
		</defs>
		<clipPath id="SVGID_00000007389484936948900230000003722344629987712191_">
			<use xlink:href="#SVGID_00000040536195418646955460000011505832784379069115_"  style="overflow:visible;"/>
		</clipPath>
		
			<linearGradient id="SVGID_00000065772869635070332560000002255678300478485424_" gradientUnits="userSpaceOnUse" x1="947.4154" y1="698.3073" x2="1271.1808" y2="567.4982">
			<stop  offset="0" style="stop-color:#2E93CC"/>
			<stop  offset="1" style="stop-color:#5FFBDE"/>
		</linearGradient>
		
			<rect x="823.04" y="504.15" style="clip-path:url(#SVGID_00000007389484936948900230000003722344629987712191_);fill:url(#SVGID_00000065772869635070332560000002255678300478485424_);" width="513.27" height="281.45"/>
	</g>
	<g>
		<defs>
			<path id="SVGID_00000055688453753164289710000014241048532539103624_" d="M823.04,672.47c0,0,471.84,129.11,529.11-137.82
				c-10.51-11.24-20.91-21.21-31.22-30.14C1222.95,692.52,823.04,672.47,823.04,672.47"/>
		</defs>
		<clipPath id="SVGID_00000088817240215620954240000007379746641286855858_">
			<use xlink:href="#SVGID_00000055688453753164289710000014241048532539103624_"  style="overflow:visible;"/>
		</clipPath>
		
			<linearGradient id="SVGID_00000044867505789436203660000017026752959547083165_" gradientUnits="userSpaceOnUse" x1="980.6448" y1="719.4661" x2="1334.6248" y2="499.6417">
			<stop  offset="0" style="stop-color:#2E93CC"/>
			<stop  offset="1" style="stop-color:#5FFBDE"/>
		</linearGradient>
		
			<rect x="823.04" y="504.52" style="clip-path:url(#SVGID_00000088817240215620954240000007379746641286855858_);fill:url(#SVGID_00000044867505789436203660000017026752959547083165_);" width="529.11" height="297.06"/>
	</g>
	<path class="st25" d="M823.04,672.47c0,0,24.13,6.59,62.06,13.71c88.66-84.24,227.29-191,382.44-218.72
		C1104.15,381.87,963.25,559.31,823.04,672.47"/>
	<path class="st26" d="M1406.08,517.34c25.26,17.41,74.57,46.43,126.22,49.56c-12.32-19.44-44.53-59.31-101.54-59.31
		C1430.76,507.59,1422.13,509.65,1406.08,517.34"/>
	<path class="st27" d="M1052.62,508.91c-22.07,52.6,16.2,29.13,81.27,15.5c65.07-13.62,73.65-23.68,115.96,0.19
		c42.31,23.87,110.21,41.51,81.34,3.02c-28.87-38.5-63.14-57.14-86.62-66.3C1195.63,442.23,1074.7,456.31,1052.62,508.91"/>
	<path class="st27" d="M1123.23,484.45c-13.22,29.2,8.64,16.61,45.4,9.99c36.76-6.63,41.74-12.14,65.12,1.93
		c23.39,14.07,61.24,25.05,45.63,2.98c-15.61-22.08-34.56-33.09-47.6-38.6C1204.6,449.26,1136.46,455.26,1123.23,484.45"/>
</g>
<path class="st28" d="M2181.32,1361.86v-29.74h-82.5v-31.92h71.65v-29.75h-71.65v-30.83h81.42v-29.74h-114.42v151.98H2181.32z
	 M2040.63,1361.86v-30.18h-75.77v-121.8h-33.44v151.98H2040.63z M1905.81,1240.71v-30.83h-125.92v30.83h46.24v121.15h33.43v-121.15
	H1905.81z M1726.69,1262.21c0,6.51-2.21,11.72-6.62,15.63c-4.41,3.91-10.75,5.86-19,5.86h-33.87v-43.64h33.22
	c8.25,0,14.69,1.81,19.32,5.43c4.63,3.62,6.95,9.05,6.95,16.29V1262.21z M1765.12,1361.86l-37.13-54.28
	c9.7-3.62,17.55-9.3,23.56-17.04c6.01-7.74,9.01-17.77,9.01-30.07v-0.44c0-15.77-5.03-28.08-15.09-36.91
	c-10.06-8.83-24.14-13.24-42.23-13.24h-69.47v151.98h33.44v-48.63h26.27l32.57,48.63H1765.12z M1599.68,1295.64v-85.76h-33.44v87.06
	c0,12.16-2.89,21.28-8.69,27.36c-5.79,6.08-13.82,9.12-24.1,9.12c-10.27,0-18.31-3.15-24.1-9.44c-5.79-6.3-8.69-15.67-8.69-28.12
	v-85.98h-33.43v86.84c0,22.44,5.86,39.3,17.59,50.59c11.72,11.29,27.79,16.93,48.2,16.93c10.13,0,19.32-1.41,27.57-4.23
	c8.25-2.82,15.27-7.09,21.06-12.81s10.24-12.84,13.35-21.39C1598.12,1317.28,1599.68,1307.22,1599.68,1295.64z M2044.44,1426.15
	v-8.12h-22.51v-8.71h19.55v-8.12h-19.55v-8.41h22.21v-8.12h-31.22v41.47H2044.44z M1949.64,1426.15v-41.47h-9v25.53l-19.43-25.53
	h-8.41v41.47h9.01v-26.36l20.08,26.36H1949.64z M1849.1,1426.15v-41.47h-9.12v41.47H1849.1z M1779.35,1426.15v-8.23h-20.67v-33.23
	h-9.12v41.47H1779.35z M1687.45,1420.28v-18.01h-18.01v7.88h9.18v5.96c-2.33,1.67-5.2,2.51-8.59,2.51c-1.86,0-3.54-0.33-5.06-0.98
	c-1.52-0.65-2.84-1.58-3.97-2.76c-1.13-1.18-2-2.58-2.61-4.19c-0.61-1.6-0.92-3.36-0.92-5.25v-0.12c0-1.78,0.3-3.46,0.92-5.02
	c0.61-1.57,1.46-2.93,2.55-4.1c1.09-1.16,2.35-2.1,3.79-2.79c1.44-0.69,2.99-1.04,4.65-1.04c1.18,0,2.27,0.1,3.26,0.3
	c0.99,0.2,1.91,0.47,2.76,0.83c0.85,0.36,1.67,0.79,2.46,1.3c0.79,0.51,1.58,1.11,2.37,1.78l5.75-6.93
	c-1.07-0.91-2.17-1.72-3.32-2.43c-1.15-0.71-2.37-1.3-3.67-1.78c-1.3-0.47-2.72-0.84-4.23-1.1c-1.52-0.26-3.21-0.38-5.07-0.38
	c-3.16,0-6.06,0.56-8.71,1.69c-2.65,1.13-4.94,2.67-6.87,4.62c-1.94,1.96-3.45,4.23-4.53,6.81c-1.09,2.59-1.63,5.36-1.63,8.32v0.12
	c0,3.08,0.53,5.92,1.6,8.53c1.07,2.61,2.56,4.86,4.47,6.75c1.92,1.89,4.21,3.38,6.87,4.44c2.66,1.07,5.62,1.6,8.86,1.6
	c3.79,0,7.16-0.64,10.1-1.93C1682.78,1423.65,1685.32,1422.1,1687.45,1420.28z M1573.46,1408.79h-11.02l5.51-13.45L1573.46,1408.79z
	 M1590.04,1426.15l-17.77-41.76h-8.41l-17.77,41.76h9.3l3.79-9.3h17.54l3.79,9.3H1590.04z M1489.32,1393.1v-8.41h-34.36v8.41h12.62
	v33.05h9.12v-33.05H1489.32z M1444.01,1240.71v-30.83h-125.92v30.83h46.24v121.15h33.43v-121.15H1444.01z"/>
</svg>
